<svg width="128" height="128" viewBox="0 0 128 128" fill="none" xmlns="http://www.w3.org/2000/svg">
<rect width="128" height="128" rx="42" fill="white"/>
<path opacity="0.8" fill-rule="evenodd" clip-rule="evenodd" d="M26.2975 75.0464C28.4747 77.211 28.4746 80.7205 26.2975 82.885L26.186 82.9959C24.0088 85.1604 20.479 85.1604 18.3019 82.9958C16.1247 80.8312 16.1248 77.3217 18.3019 75.1572L18.4134 75.0463C20.5906 72.8818 24.1204 72.8818 26.2975 75.0464Z" fill="black"/>
<path opacity="0.9" fill-rule="evenodd" clip-rule="evenodd" d="M52.5069 76.7154C54.6801 78.8839 54.6737 82.3933 52.4927 84.554L37.0501 99.8519C34.8691 102.013 31.3392 102.006 29.166 99.8377C26.9928 97.6693 26.9992 94.1598 29.1803 91.9991L44.6228 76.7012C46.8039 74.5406 50.3337 74.5469 52.5069 76.7154Z" fill="black"/>
<path opacity="0.8" fill-rule="evenodd" clip-rule="evenodd" d="M73.466 103.05C75.1739 100.503 78.6352 99.8151 81.197 101.513L81.5315 101.735C84.0934 103.433 84.7856 106.874 83.0777 109.421C81.3698 111.968 77.9085 112.657 75.3467 110.959L75.0122 110.737C72.4504 109.039 71.7581 105.597 73.466 103.05Z" fill="black"/>
<path opacity="0.9" fill-rule="evenodd" clip-rule="evenodd" d="M110.256 74.714C112.433 76.8785 112.433 80.388 110.256 82.5526L102.674 90.0907C100.497 92.2552 96.9668 92.2552 94.7896 90.0907C92.6125 87.9261 92.6125 84.4167 94.7896 82.2521L102.372 74.714C104.549 72.5494 108.079 72.5494 110.256 74.714Z" fill="black"/>
<path fill-rule="evenodd" clip-rule="evenodd" d="M110.367 46.834C112.544 48.9986 112.544 52.508 110.367 54.6726L54.3392 110.377C52.1621 112.542 48.6323 112.542 46.4551 110.377C44.278 108.212 44.278 104.703 46.4551 102.538L102.483 46.834C104.66 44.6694 108.19 44.6694 110.367 46.834Z" fill="black"/>
<path fill-rule="evenodd" clip-rule="evenodd" d="M99.7746 29.7065C101.952 31.8711 101.952 35.3806 99.7746 37.5451L67.5516 69.5821C65.3744 71.7466 61.8446 71.7466 59.6675 69.5821C57.4903 67.4175 57.4903 63.908 59.6675 61.7435L91.8905 29.7065C94.0676 27.542 97.5975 27.542 99.7746 29.7065Z" fill="black"/>
<path fill-rule="evenodd" clip-rule="evenodd" d="M82.7685 18.8406C84.9471 21.0037 84.9495 24.5132 82.7738 26.6792L41.3522 67.9171C39.1765 70.0831 35.6467 70.0855 33.4681 67.9223C31.2895 65.7592 31.2871 62.2498 33.4628 60.0838L74.8844 18.8459C77.06 16.6799 80.5899 16.6775 82.7685 18.8406Z" fill="black"/>
<path opacity="0.9" fill-rule="evenodd" clip-rule="evenodd" d="M41.7467 32.041C43.9201 34.2093 43.9141 37.7188 41.7332 39.8796L25.5102 55.9535C23.3293 58.1144 19.7995 58.1083 17.6261 55.94C15.4527 53.7717 15.4588 50.2623 17.6396 48.1014L33.8626 32.0275C36.0435 29.8667 39.5734 29.8727 41.7467 32.041Z" fill="black"/>
<path opacity="0.8" fill-rule="evenodd" clip-rule="evenodd" d="M51.6793 16C54.7583 16 57.2542 18.4816 57.2542 21.5427V22.097C57.2542 25.1582 54.7583 27.6397 51.6793 27.6397C48.6004 27.6397 46.1044 25.1582 46.1044 22.097V21.5427C46.1044 18.4816 48.6004 16 51.6793 16Z" fill="black"/>
</svg>
