<svg width="128" height="128" viewBox="0 0 128 128" fill="none" xmlns="http://www.w3.org/2000/svg">
<rect width="128" height="128" rx="32" fill="black"/>
<path d="M17.8787 46.163C16.7071 44.9914 16.7071 43.0919 17.8787 41.9203L22.1213 37.6777C23.2929 36.5061 25.1924 36.5061 26.364 37.6777L30.6066 41.9203C31.7782 43.0919 31.7782 44.9914 30.6066 46.163L26.364 50.4056C25.1924 51.5772 23.2929 51.5772 22.1213 50.4056L17.8787 46.163Z" fill="#FFCA00"/>
<path d="M27.7782 36.2635C26.6066 35.0919 26.6066 33.1924 27.7782 32.0208L32.0208 27.7782C33.1924 26.6066 35.0919 26.6066 36.2635 27.7782L40.5061 32.0208C41.6777 33.1924 41.6777 35.0919 40.5061 36.2635L36.2635 40.5061C35.0919 41.6777 33.1924 41.6777 32.0208 40.5061L27.7782 36.2635Z" fill="#FFCA00"/>
<path d="M37.6777 26.364C36.5061 25.1924 36.5061 23.2929 37.6777 22.1213L41.9203 17.8787C43.0919 16.7071 44.9914 16.7071 46.163 17.8787L50.4056 22.1213C51.5772 23.2929 51.5772 25.1924 50.4056 26.364L46.163 30.6066C44.9914 31.7782 43.0919 31.7782 41.9203 30.6066L37.6777 26.364Z" fill="#FFCA00" fill-opacity="0.3"/>
<path d="M17.8787 65.9619C16.7071 64.7904 16.7071 62.8909 17.8787 61.7193L22.1213 57.4767C23.2929 56.3051 25.1924 56.3051 26.364 57.4767L30.6066 61.7193C31.7782 62.8909 31.7782 64.7904 30.6066 65.9619L26.364 70.2046C25.1924 71.3762 23.2929 71.3762 22.1213 70.2046L17.8787 65.9619Z" fill="#FFCA00"/>
<path d="M27.7782 56.0624C26.6066 54.8909 26.6066 52.9914 27.7782 51.8198L32.0208 47.5772C33.1924 46.4056 35.0919 46.4056 36.2635 47.5772L40.5061 51.8198C41.6777 52.9914 41.6777 54.8909 40.5061 56.0624L36.2635 60.3051C35.0919 61.4767 33.1924 61.4767 32.0208 60.3051L27.7782 56.0624Z" fill="#FFCA00" fill-opacity="0.3"/>
<path d="M37.6777 46.163C36.5061 44.9914 36.5061 43.0919 37.6777 41.9203L41.9203 37.6777C43.0919 36.5061 44.9914 36.5061 46.163 37.6777L50.4056 41.9203C51.5772 43.0919 51.5772 44.9914 50.4056 46.163L46.163 50.4056C44.9914 51.5772 43.0919 51.5772 41.9203 50.4056L37.6777 46.163Z" fill="#FFCA00"/>
<path d="M47.5772 36.2635C46.4056 35.0919 46.4056 33.1924 47.5772 32.0208L51.8198 27.7782C52.9914 26.6066 54.8909 26.6066 56.0624 27.7782L60.3051 32.0208C61.4767 33.1924 61.4767 35.0919 60.3051 36.2635L56.0624 40.5061C54.8909 41.6777 52.9914 41.6777 51.8198 40.5061L47.5772 36.2635Z" fill="#FFCA00" fill-opacity="0.3"/>
<path d="M57.4767 26.364C56.3051 25.1924 56.3051 23.2929 57.4767 22.1213L61.7193 17.8787C62.8909 16.7071 64.7904 16.7071 65.9619 17.8787L70.2046 22.1213C71.3762 23.2929 71.3762 25.1924 70.2046 26.364L65.9619 30.6066C64.7904 31.7782 62.8909 31.7782 61.7193 30.6066L57.4767 26.364Z" fill="#FFCA00"/>
<path d="M17.8787 85.7609C16.7071 84.5894 16.7071 82.6899 17.8787 81.5183L22.1213 77.2757C23.2929 76.1041 25.1924 76.1041 26.364 77.2757L30.6066 81.5183C31.7782 82.6899 31.7782 84.5894 30.6066 85.7609L26.364 90.0036C25.1924 91.1751 23.2929 91.1751 22.1213 90.0036L17.8787 85.7609Z" fill="#9359FF"/>
<path d="M27.7782 75.8614C26.6066 74.6899 26.6066 72.7904 27.7782 71.6188L32.0208 67.3762C33.1924 66.2046 35.0919 66.2046 36.2635 67.3762L40.5061 71.6188C41.6777 72.7904 41.6777 74.6899 40.5061 75.8614L36.2635 80.1041C35.0919 81.2757 33.1924 81.2756 32.0208 80.1041L27.7782 75.8614Z" fill="#9359FF"/>
<path d="M37.6777 65.9619C36.5061 64.7904 36.5061 62.8909 37.6777 61.7193L41.9203 57.4767C43.0919 56.3051 44.9914 56.3051 46.163 57.4767L50.4056 61.7193C51.5772 62.8909 51.5772 64.7904 50.4056 65.9619L46.163 70.2046C44.9914 71.3762 43.0919 71.3762 41.9203 70.2046L37.6777 65.9619Z" fill="#9359FF" fill-opacity="0.3"/>
<path d="M47.5772 56.0624C46.4056 54.8909 46.4056 52.9914 47.5772 51.8198L51.8198 47.5772C52.9914 46.4056 54.8909 46.4056 56.0624 47.5772L60.3051 51.8198C61.4767 52.9914 61.4767 54.8909 60.3051 56.0625L56.0624 60.3051C54.8909 61.4767 52.9914 61.4767 51.8198 60.3051L47.5772 56.0624Z" fill="#9359FF"/>
<path d="M57.4767 46.163C56.3051 44.9914 56.3051 43.0919 57.4767 41.9203L61.7193 37.6777C62.8909 36.5061 64.7904 36.5061 65.9619 37.6777L70.2046 41.9203C71.3762 43.0919 71.3762 44.9914 70.2046 46.163L65.9619 50.4056C64.7904 51.5772 62.8909 51.5772 61.7193 50.4056L57.4767 46.163Z" fill="#9359FF"/>
<path d="M67.3762 36.2635C66.2046 35.0919 66.2046 33.1924 67.3762 32.0208L71.6188 27.7782C72.7904 26.6066 74.6899 26.6066 75.8614 27.7782L80.1041 32.0208C81.2756 33.1924 81.2756 35.0919 80.1041 36.2635L75.8614 40.5061C74.6899 41.6777 72.7904 41.6777 71.6188 40.5061L67.3762 36.2635Z" fill="#9359FF" fill-opacity="0.3"/>
<path d="M77.2757 26.364C76.1041 25.1924 76.1041 23.2929 77.2757 22.1213L81.5183 17.8787C82.6899 16.7071 84.5894 16.7071 85.7609 17.8787L90.0036 22.1213C91.1751 23.2929 91.1751 25.1924 90.0036 26.364L85.7609 30.6066C84.5894 31.7782 82.6899 31.7782 81.5183 30.6066L77.2757 26.364Z" fill="#9359FF"/>
<path d="M22.8284 100.61C21.6569 99.4386 21.6569 97.5391 22.8284 96.3675L27.0711 92.1249C28.2426 90.9533 30.1421 90.9533 31.3137 92.1249L35.5563 96.3675C36.7279 97.5391 36.7279 99.4386 35.5563 100.61L31.3137 104.853C30.1421 106.024 28.2426 106.024 27.0711 104.853L22.8284 100.61Z" fill="#9359FF"/>
<path d="M32.7279 90.7107C31.5563 89.5391 31.5563 87.6396 32.7279 86.468L36.9706 82.2254C38.1421 81.0538 40.0416 81.0538 41.2132 82.2254L45.4558 86.468C46.6274 87.6396 46.6274 89.5391 45.4558 90.7107L41.2132 94.9533C40.0416 96.1249 38.1421 96.1249 36.9706 94.9533L32.7279 90.7107Z" fill="#9359FF"/>
<path d="M42.6274 80.8112C41.4558 79.6396 41.4558 77.7401 42.6274 76.5685L46.8701 72.3259C48.0416 71.1543 49.9411 71.1543 51.1127 72.3259L55.3553 76.5685C56.5269 77.7401 56.5269 79.6396 55.3553 80.8112L51.1127 85.0538C49.9411 86.2254 48.0416 86.2254 46.8701 85.0538L42.6274 80.8112Z" fill="#9359FF"/>
<path d="M52.5269 70.9117C51.3553 69.7401 51.3553 67.8406 52.5269 66.6691L56.7696 62.4264C57.9411 61.2548 59.8406 61.2548 61.0122 62.4264L65.2548 66.6691C66.4264 67.8406 66.4264 69.7401 65.2548 70.9117L61.0122 75.1543C59.8406 76.3259 57.9411 76.3259 56.7696 75.1543L52.5269 70.9117Z" fill="#9359FF" fill-opacity="0.3"/>
<path d="M62.4264 61.0122C61.2548 59.8406 61.2548 57.9411 62.4264 56.7696L66.669 52.5269C67.8406 51.3553 69.7401 51.3553 70.9117 52.5269L75.1543 56.7696C76.3259 57.9411 76.3259 59.8406 75.1543 61.0122L70.9117 65.2548C69.7401 66.4264 67.8406 66.4264 66.669 65.2548L62.4264 61.0122Z" fill="#00BC7C" fill-opacity="0.3"/>
<path d="M72.3259 51.1127C71.1543 49.9411 71.1543 48.0416 72.3259 46.8701L76.5685 42.6274C77.7401 41.4558 79.6396 41.4558 80.8112 42.6274L85.0538 46.8701C86.2254 48.0416 86.2254 49.9411 85.0538 51.1127L80.8112 55.3553C79.6396 56.5269 77.7401 56.5269 76.5685 55.3553L72.3259 51.1127Z" fill="#00BC7C"/>
<path d="M82.2254 41.2132C81.0538 40.0416 81.0538 38.1421 82.2254 36.9706L86.468 32.7279C87.6396 31.5564 89.5391 31.5564 90.7107 32.7279L94.9533 36.9706C96.1249 38.1421 96.1249 40.0416 94.9533 41.2132L90.7107 45.4558C89.5391 46.6274 87.6396 46.6274 86.468 45.4558L82.2254 41.2132Z" fill="#00BC7C"/>
<path d="M92.1249 31.3137C90.9533 30.1421 90.9533 28.2426 92.1249 27.0711L96.3675 22.8284C97.5391 21.6569 99.4386 21.6569 100.61 22.8284L104.853 27.0711C106.024 28.2426 106.024 30.1421 104.853 31.3137L100.61 35.5564C99.4386 36.7279 97.5391 36.7279 96.3675 35.5564L92.1249 31.3137Z" fill="#00BC7C"/>
<path d="M37.6777 105.56C36.5061 104.388 36.5061 102.489 37.6777 101.317L41.9203 97.0746C43.0919 95.9031 44.9914 95.9031 46.163 97.0746L50.4056 101.317C51.5772 102.489 51.5772 104.388 50.4056 105.56L46.163 109.803C44.9914 110.974 43.0919 110.974 41.9203 109.803L37.6777 105.56Z" fill="#00BC7C"/>
<path d="M47.5772 95.6604C46.4056 94.4889 46.4056 92.5894 47.5772 91.4178L51.8198 87.1751C52.9914 86.0036 54.8909 86.0036 56.0624 87.1751L60.3051 91.4178C61.4767 92.5894 61.4767 94.4889 60.3051 95.6604L56.0624 99.9031C54.8909 101.075 52.9914 101.075 51.8198 99.9031L47.5772 95.6604Z" fill="#00BC7C" fill-opacity="0.3"/>
<path d="M57.4767 85.7609C56.3051 84.5894 56.3051 82.6899 57.4767 81.5183L61.7193 77.2757C62.8909 76.1041 64.7904 76.1041 65.9619 77.2757L70.2046 81.5183C71.3762 82.6899 71.3762 84.5894 70.2046 85.7609L65.9619 90.0036C64.7904 91.1751 62.8909 91.1751 61.7193 90.0036L57.4767 85.7609Z" fill="#00BC7C"/>
<path d="M67.3762 75.8614C66.2046 74.6899 66.2046 72.7904 67.3762 71.6188L71.6188 67.3762C72.7904 66.2046 74.6899 66.2046 75.8614 67.3762L80.1041 71.6188C81.2756 72.7904 81.2756 74.6899 80.1041 75.8614L75.8614 80.1041C74.6899 81.2756 72.7904 81.2756 71.6188 80.1041L67.3762 75.8614Z" fill="#00BC7C"/>
<path d="M77.2757 65.9619C76.1041 64.7904 76.1041 62.8909 77.2757 61.7193L81.5183 57.4767C82.6899 56.3051 84.5894 56.3051 85.7609 57.4767L90.0036 61.7193C91.1751 62.8909 91.1751 64.7904 90.0036 65.9619L85.7609 70.2046C84.5894 71.3762 82.6899 71.3762 81.5183 70.2046L77.2757 65.9619Z" fill="#00BC7C" fill-opacity="0.3"/>
<path d="M87.1751 56.0625C86.0036 54.8909 86.0036 52.9914 87.1751 51.8198L91.4178 47.5772C92.5894 46.4056 94.4889 46.4056 95.6604 47.5772L99.9031 51.8198C101.075 52.9914 101.075 54.8909 99.9031 56.0625L95.6604 60.3051C94.4889 61.4767 92.5894 61.4767 91.4178 60.3051L87.1751 56.0625Z" fill="#00BC7C"/>
<path d="M97.0746 46.163C95.9031 44.9914 95.9031 43.0919 97.0746 41.9203L101.317 37.6777C102.489 36.5061 104.388 36.5061 105.56 37.6777L109.803 41.9203C110.974 43.0919 110.974 44.9914 109.803 46.163L105.56 50.4056C104.388 51.5772 102.489 51.5772 101.317 50.4056L97.0746 46.163Z" fill="#00BC7C"/>
<path d="M57.4767 105.56C56.3051 104.388 56.3051 102.489 57.4767 101.317L61.7193 97.0746C62.8909 95.9031 64.7904 95.9031 65.9619 97.0746L70.2046 101.317C71.3762 102.489 71.3762 104.388 70.2046 105.56L65.9619 109.803C64.7904 110.974 62.8909 110.974 61.7193 109.803L57.4767 105.56Z" fill="#FF2B3A"/>
<path d="M67.3762 95.6604C66.2046 94.4889 66.2046 92.5894 67.3762 91.4178L71.6188 87.1751C72.7904 86.0036 74.6899 86.0036 75.8614 87.1751L80.1041 91.4178C81.2756 92.5894 81.2756 94.4889 80.1041 95.6604L75.8614 99.9031C74.6899 101.075 72.7904 101.075 71.6188 99.9031L67.3762 95.6604Z" fill="#FF2B3A" fill-opacity="0.3"/>
<path d="M77.2757 85.7609C76.1041 84.5894 76.1041 82.6899 77.2757 81.5183L81.5183 77.2757C82.6899 76.1041 84.5894 76.1041 85.7609 77.2757L90.0036 81.5183C91.1751 82.6899 91.1751 84.5894 90.0036 85.7609L85.7609 90.0036C84.5894 91.1751 82.6899 91.1751 81.5183 90.0036L77.2757 85.7609Z" fill="#FF2B3A"/>
<path d="M87.1751 75.8614C86.0036 74.6899 86.0036 72.7904 87.1751 71.6188L91.4178 67.3762C92.5894 66.2046 94.4889 66.2046 95.6604 67.3762L99.9031 71.6188C101.075 72.7904 101.075 74.6899 99.9031 75.8614L95.6604 80.1041C94.4889 81.2756 92.5894 81.2756 91.4178 80.1041L87.1751 75.8614Z" fill="#FF2B3A" fill-opacity="0.3"/>
<path d="M97.0746 65.9619C95.9031 64.7904 95.9031 62.8909 97.0746 61.7193L101.317 57.4767C102.489 56.3051 104.388 56.3051 105.56 57.4767L109.803 61.7193C110.974 62.8909 110.974 64.7904 109.803 65.9619L105.56 70.2046C104.388 71.3762 102.489 71.3762 101.317 70.2046L97.0746 65.9619Z" fill="#FF2B3A"/>
<path d="M77.2757 105.56C76.1041 104.388 76.1041 102.489 77.2757 101.317L81.5183 97.0746C82.6899 95.9031 84.5894 95.9031 85.7609 97.0746L90.0036 101.317C91.1751 102.489 91.1751 104.388 90.0036 105.56L85.7609 109.803C84.5894 110.974 82.6899 110.974 81.5183 109.803L77.2757 105.56Z" fill="#FF2B3A" fill-opacity="0.3"/>
<path d="M87.1751 95.6604C86.0036 94.4889 86.0036 92.5894 87.1751 91.4178L91.4178 87.1751C92.5894 86.0036 94.4889 86.0036 95.6604 87.1751L99.9031 91.4178C101.075 92.5894 101.075 94.4888 99.9031 95.6604L95.6604 99.9031C94.4889 101.075 92.5894 101.075 91.4178 99.9031L87.1751 95.6604Z" fill="#FF2B3A"/>
<path d="M97.0746 85.7609C95.9031 84.5894 95.9031 82.6899 97.0746 81.5183L101.317 77.2757C102.489 76.1041 104.388 76.1041 105.56 77.2757L109.803 81.5183C110.974 82.6899 110.974 84.5894 109.803 85.7609L105.56 90.0036C104.388 91.1751 102.489 91.1751 101.317 90.0036L97.0746 85.7609Z" fill="#FF2B3A"/>
</svg>
