<svg width="128" height="128" viewBox="0 0 128 128" fill="none" xmlns="http://www.w3.org/2000/svg">
<rect width="128" height="128" rx="32" fill="white"/>
<path d="M17.8197 46.3223C16.6481 45.1508 16.6481 43.2513 17.8197 42.0797L22.0624 37.837C23.2339 36.6655 25.1334 36.6655 26.305 37.837L30.5476 42.0797C31.7192 43.2513 31.7192 45.1508 30.5476 46.3223L26.305 50.565C25.1334 51.7365 23.2339 51.7365 22.0624 50.565L17.8197 46.3223Z" fill="#FFCA00"/>
<path d="M27.7192 36.4228C26.5476 35.2513 26.5476 33.3518 27.7192 32.1802L31.9619 27.9376C33.1334 26.766 35.0329 26.766 36.2045 27.9376L40.4471 32.1802C41.6187 33.3518 41.6187 35.2513 40.4471 36.4228L36.2045 40.6655C35.0329 41.837 33.1334 41.837 31.9619 40.6655L27.7192 36.4228Z" fill="#FFCA00"/>
<path d="M37.6187 26.5233C36.4471 25.3518 36.4471 23.4523 37.6187 22.2807L41.8614 18.0381C43.0329 16.8665 44.9324 16.8665 46.104 18.0381L50.3466 22.2807C51.5182 23.4523 51.5182 25.3518 50.3466 26.5233L46.104 30.766C44.9324 31.9376 43.0329 31.9376 41.8614 30.766L37.6187 26.5233Z" fill="#FFCA00" fill-opacity="0.3"/>
<path d="M17.8197 66.1213C16.6481 64.9497 16.6481 63.0503 17.8197 61.8787L22.0624 57.636C23.2339 56.4645 25.1334 56.4645 26.305 57.636L30.5476 61.8787C31.7192 63.0503 31.7192 64.9497 30.5476 66.1213L26.305 70.364C25.1334 71.5355 23.2339 71.5355 22.0624 70.364L17.8197 66.1213Z" fill="#FFCA00"/>
<path d="M27.7192 56.2218C26.5476 55.0503 26.5476 53.1508 27.7192 51.9792L31.9619 47.7365C33.1334 46.565 35.0329 46.565 36.2045 47.7365L40.4471 51.9792C41.6187 53.1508 41.6187 55.0503 40.4471 56.2218L36.2045 60.4645C35.0329 61.636 33.1334 61.636 31.9619 60.4645L27.7192 56.2218Z" fill="#FFCA00" fill-opacity="0.3"/>
<path d="M37.6187 46.3223C36.4471 45.1508 36.4471 43.2513 37.6187 42.0797L41.8614 37.837C43.0329 36.6655 44.9324 36.6655 46.104 37.837L50.3466 42.0797C51.5182 43.2513 51.5182 45.1508 50.3466 46.3223L46.104 50.565C44.9324 51.7365 43.0329 51.7365 41.8614 50.565L37.6187 46.3223Z" fill="#FFCA00"/>
<path d="M47.5182 36.4228C46.3466 35.2513 46.3466 33.3518 47.5182 32.1802L51.7608 27.9376C52.9324 26.766 54.8319 26.766 56.0035 27.9376L60.2461 32.1802C61.4177 33.3518 61.4177 35.2513 60.2461 36.4228L56.0035 40.6655C54.8319 41.837 52.9324 41.837 51.7608 40.6655L47.5182 36.4228Z" fill="#FFCA00" fill-opacity="0.3"/>
<path d="M57.4177 26.5233C56.2461 25.3518 56.2461 23.4523 57.4177 22.2807L61.6603 18.0381C62.8319 16.8665 64.7314 16.8665 65.903 18.0381L70.1456 22.2807C71.3172 23.4523 71.3172 25.3518 70.1456 26.5233L65.903 30.766C64.7314 31.9376 62.8319 31.9376 61.6603 30.766L57.4177 26.5233Z" fill="#FFCA00"/>
<path d="M17.8197 85.9203C16.6481 84.7487 16.6481 82.8492 17.8197 81.6777L22.0624 77.435C23.2339 76.2635 25.1334 76.2635 26.305 77.435L30.5476 81.6777C31.7192 82.8492 31.7192 84.7487 30.5476 85.9203L26.305 90.1629C25.1334 91.3345 23.2339 91.3345 22.0624 90.1629L17.8197 85.9203Z" fill="#9359FF"/>
<path d="M27.7192 76.0208C26.5476 74.8492 26.5476 72.9497 27.7192 71.7782L31.9619 67.5355C33.1334 66.364 35.0329 66.364 36.2045 67.5355L40.4471 71.7782C41.6187 72.9497 41.6187 74.8492 40.4471 76.0208L36.2045 80.2635C35.0329 81.435 33.1334 81.435 31.9619 80.2635L27.7192 76.0208Z" fill="#9359FF"/>
<path d="M37.6187 66.1213C36.4471 64.9497 36.4471 63.0503 37.6187 61.8787L41.8614 57.636C43.0329 56.4645 44.9324 56.4645 46.104 57.636L50.3466 61.8787C51.5182 63.0503 51.5182 64.9497 50.3466 66.1213L46.104 70.364C44.9324 71.5355 43.0329 71.5355 41.8614 70.364L37.6187 66.1213Z" fill="#9359FF" fill-opacity="0.3"/>
<path d="M47.5182 56.2218C46.3466 55.0503 46.3466 53.1508 47.5182 51.9792L51.7608 47.7365C52.9324 46.565 54.8319 46.565 56.0035 47.7365L60.2461 51.9792C61.4177 53.1508 61.4177 55.0503 60.2461 56.2218L56.0035 60.4645C54.8319 61.636 52.9324 61.636 51.7608 60.4645L47.5182 56.2218Z" fill="#9359FF"/>
<path d="M57.4177 46.3223C56.2461 45.1508 56.2461 43.2513 57.4177 42.0797L61.6603 37.837C62.8319 36.6655 64.7314 36.6655 65.903 37.837L70.1456 42.0797C71.3172 43.2513 71.3172 45.1508 70.1456 46.3223L65.903 50.565C64.7314 51.7365 62.8319 51.7365 61.6603 50.565L57.4177 46.3223Z" fill="#9359FF"/>
<path d="M67.3172 36.4228C66.1456 35.2513 66.1456 33.3518 67.3172 32.1802L71.5598 27.9376C72.7314 26.766 74.6309 26.766 75.8025 27.9376L80.0451 32.1802C81.2167 33.3518 81.2167 35.2513 80.0451 36.4228L75.8025 40.6655C74.6309 41.8371 72.7314 41.8371 71.5598 40.6655L67.3172 36.4228Z" fill="#9359FF" fill-opacity="0.3"/>
<path d="M77.2167 26.5233C76.0451 25.3518 76.0451 23.4523 77.2167 22.2807L81.4593 18.0381C82.6309 16.8665 84.5304 16.8665 85.702 18.0381L89.9446 22.2807C91.1162 23.4523 91.1162 25.3518 89.9446 26.5233L85.702 30.766C84.5304 31.9376 82.6309 31.9376 81.4593 30.766L77.2167 26.5233Z" fill="#9359FF"/>
<path d="M22.7695 100.77C21.5979 99.598 21.5979 97.6985 22.7695 96.5269L27.0121 92.2843C28.1837 91.1127 30.0832 91.1127 31.2547 92.2843L35.4974 96.5269C36.669 97.6985 36.669 99.598 35.4974 100.77L31.2547 105.012C30.0832 106.184 28.1837 106.184 27.0121 105.012L22.7695 100.77Z" fill="#9359FF"/>
<path d="M32.669 90.8701C31.4974 89.6985 31.4974 87.799 32.669 86.6274L36.9116 82.3848C38.0832 81.2132 39.9827 81.2132 41.1542 82.3848L45.3969 86.6274C46.5685 87.799 46.5685 89.6985 45.3969 90.8701L41.1542 95.1127C39.9827 96.2843 38.0832 96.2843 36.9116 95.1127L32.669 90.8701Z" fill="#9359FF"/>
<path d="M42.5685 80.9706C41.3969 79.799 41.3969 77.8995 42.5685 76.7279L46.8111 72.4853C47.9827 71.3137 49.8822 71.3137 51.0537 72.4853L55.2964 76.7279C56.468 77.8995 56.468 79.799 55.2964 80.9706L51.0537 85.2132C49.8822 86.3848 47.9827 86.3848 46.8111 85.2132L42.5685 80.9706Z" fill="#9359FF"/>
<path d="M52.468 71.0711C51.2964 69.8995 51.2964 68 52.468 66.8284L56.7106 62.5858C57.8822 61.4142 59.7817 61.4142 60.9532 62.5858L65.1959 66.8284C66.3674 68 66.3674 69.8995 65.1959 71.0711L60.9532 75.3137C59.7817 76.4853 57.8822 76.4853 56.7106 75.3137L52.468 71.0711Z" fill="#9359FF" fill-opacity="0.3"/>
<path d="M62.3674 61.1716C61.1959 60 61.1959 58.1005 62.3674 56.9289L66.6101 52.6863C67.7817 51.5147 69.6812 51.5147 70.8527 52.6863L75.0954 56.9289C76.2669 58.1005 76.2669 60 75.0954 61.1716L70.8527 65.4142C69.6812 66.5858 67.7817 66.5858 66.6101 65.4142L62.3674 61.1716Z" fill="#00BC7C" fill-opacity="0.3"/>
<path d="M72.2669 51.2721C71.0954 50.1005 71.0954 48.201 72.2669 47.0294L76.5096 42.7868C77.6812 41.6152 79.5807 41.6152 80.7522 42.7868L84.9949 47.0294C86.1664 48.201 86.1664 50.1005 84.9949 51.2721L80.7522 55.5147C79.5807 56.6863 77.6812 56.6863 76.5096 55.5147L72.2669 51.2721Z" fill="#00BC7C"/>
<path d="M82.1664 41.3726C80.9949 40.201 80.9949 38.3015 82.1664 37.1299L86.4091 32.8873C87.5807 31.7157 89.4801 31.7157 90.6517 32.8873L94.8944 37.1299C96.0659 38.3015 96.0659 40.201 94.8944 41.3726L90.6517 45.6152C89.4801 46.7868 87.5807 46.7868 86.4091 45.6152L82.1664 41.3726Z" fill="#00BC7C"/>
<path d="M92.0659 31.4731C90.8944 30.3015 90.8944 28.402 92.0659 27.2304L96.3086 22.9878C97.4801 21.8162 99.3796 21.8162 100.551 22.9878L104.794 27.2304C105.965 28.402 105.965 30.3015 104.794 31.4731L100.551 35.7157C99.3796 36.8873 97.4801 36.8873 96.3086 35.7157L92.0659 31.4731Z" fill="#00BC7C"/>
<path d="M37.6187 105.719C36.4471 104.548 36.4471 102.648 37.6187 101.477L41.8614 97.234C43.0329 96.0624 44.9324 96.0625 46.104 97.234L50.3466 101.477C51.5182 102.648 51.5182 104.548 50.3466 105.719L46.104 109.962C44.9324 111.134 43.0329 111.134 41.8613 109.962L37.6187 105.719Z" fill="#00BC7C"/>
<path d="M47.5182 95.8198C46.3466 94.6482 46.3466 92.7487 47.5182 91.5772L51.7608 87.3345C52.9324 86.163 54.8319 86.163 56.0035 87.3345L60.2461 91.5772C61.4177 92.7487 61.4177 94.6482 60.2461 95.8198L56.0035 100.062C54.8319 101.234 52.9324 101.234 51.7608 100.062L47.5182 95.8198Z" fill="#00BC7C" fill-opacity="0.3"/>
<path d="M57.4177 85.9203C56.2461 84.7487 56.2461 82.8492 57.4177 81.6777L61.6603 77.435C62.8319 76.2635 64.7314 76.2635 65.903 77.435L70.1456 81.6777C71.3172 82.8492 71.3172 84.7487 70.1456 85.9203L65.903 90.1629C64.7314 91.3345 62.8319 91.3345 61.6603 90.1629L57.4177 85.9203Z" fill="#00BC7C"/>
<path d="M67.3172 76.0208C66.1456 74.8492 66.1456 72.9497 67.3172 71.7782L71.5598 67.5355C72.7314 66.364 74.6309 66.364 75.8025 67.5355L80.0451 71.7782C81.2167 72.9497 81.2167 74.8492 80.0451 76.0208L75.8025 80.2635C74.6309 81.435 72.7314 81.435 71.5598 80.2635L67.3172 76.0208Z" fill="#00BC7C"/>
<path d="M77.2167 66.1213C76.0451 64.9497 76.0451 63.0503 77.2167 61.8787L81.4593 57.636C82.6309 56.4645 84.5304 56.4645 85.702 57.636L89.9446 61.8787C91.1162 63.0503 91.1162 64.9497 89.9446 66.1213L85.702 70.364C84.5304 71.5355 82.6309 71.5355 81.4593 70.364L77.2167 66.1213Z" fill="#00BC7C" fill-opacity="0.3"/>
<path d="M87.1162 56.2218C85.9446 55.0503 85.9446 53.1508 87.1162 51.9792L91.3588 47.7365C92.5304 46.565 94.4299 46.565 95.6015 47.7365L99.8441 51.9792C101.016 53.1508 101.016 55.0503 99.8441 56.2218L95.6015 60.4645C94.4299 61.636 92.5304 61.636 91.3588 60.4645L87.1162 56.2218Z" fill="#00BC7C"/>
<path d="M97.0157 46.3223C95.8441 45.1508 95.8441 43.2513 97.0157 42.0797L101.258 37.837C102.43 36.6655 104.329 36.6655 105.501 37.837L109.744 42.0797C110.915 43.2513 110.915 45.1508 109.744 46.3223L105.501 50.565C104.329 51.7365 102.43 51.7365 101.258 50.565L97.0157 46.3223Z" fill="#00BC7C"/>
<path d="M57.4177 105.719C56.2461 104.548 56.2461 102.648 57.4177 101.477L61.6603 97.234C62.8319 96.0624 64.7314 96.0624 65.903 97.234L70.1456 101.477C71.3172 102.648 71.3172 104.548 70.1456 105.719L65.903 109.962C64.7314 111.134 62.8319 111.134 61.6603 109.962L57.4177 105.719Z" fill="#FF2B3A"/>
<path d="M67.3172 95.8198C66.1456 94.6482 66.1456 92.7487 67.3172 91.5772L71.5598 87.3345C72.7314 86.163 74.6309 86.163 75.8025 87.3345L80.0451 91.5772C81.2167 92.7487 81.2167 94.6482 80.0451 95.8198L75.8025 100.062C74.6309 101.234 72.7314 101.234 71.5598 100.062L67.3172 95.8198Z" fill="#FF2B3A" fill-opacity="0.3"/>
<path d="M77.2167 85.9203C76.0451 84.7487 76.0451 82.8492 77.2167 81.6777L81.4593 77.435C82.6309 76.2635 84.5304 76.2635 85.702 77.435L89.9446 81.6777C91.1162 82.8492 91.1162 84.7487 89.9446 85.9203L85.702 90.1629C84.5304 91.3345 82.6309 91.3345 81.4593 90.1629L77.2167 85.9203Z" fill="#FF2B3A"/>
<path d="M87.1162 76.0208C85.9446 74.8492 85.9446 72.9497 87.1162 71.7782L91.3588 67.5355C92.5304 66.364 94.4299 66.364 95.6015 67.5355L99.8441 71.7782C101.016 72.9497 101.016 74.8492 99.8441 76.0208L95.6015 80.2635C94.4299 81.435 92.5304 81.435 91.3588 80.2635L87.1162 76.0208Z" fill="#FF2B3A" fill-opacity="0.3"/>
<path d="M97.0157 66.1213C95.8441 64.9497 95.8441 63.0503 97.0157 61.8787L101.258 57.636C102.43 56.4645 104.329 56.4645 105.501 57.636L109.744 61.8787C110.915 63.0503 110.915 64.9497 109.744 66.1213L105.501 70.364C104.329 71.5355 102.43 71.5355 101.258 70.364L97.0157 66.1213Z" fill="#FF2B3A"/>
<path d="M77.2167 105.719C76.0451 104.548 76.0451 102.648 77.2167 101.477L81.4593 97.234C82.6309 96.0624 84.5304 96.0624 85.702 97.234L89.9446 101.477C91.1162 102.648 91.1162 104.548 89.9446 105.719L85.702 109.962C84.5304 111.134 82.6309 111.134 81.4593 109.962L77.2167 105.719Z" fill="#FF2B3A" fill-opacity="0.3"/>
<path d="M87.1162 95.8198C85.9446 94.6482 85.9446 92.7487 87.1162 91.5772L91.3588 87.3345C92.5304 86.163 94.4299 86.163 95.6015 87.3345L99.8441 91.5772C101.016 92.7487 101.016 94.6482 99.8441 95.8198L95.6015 100.062C94.4299 101.234 92.5304 101.234 91.3588 100.062L87.1162 95.8198Z" fill="#FF2B3A"/>
<path d="M97.0157 85.9203C95.8441 84.7487 95.8441 82.8492 97.0157 81.6777L101.258 77.435C102.43 76.2635 104.329 76.2635 105.501 77.435L109.744 81.6777C110.915 82.8492 110.915 84.7487 109.744 85.9203L105.501 90.1629C104.329 91.3345 102.43 91.3345 101.258 90.1629L97.0157 85.9203Z" fill="#FF2B3A"/>
</svg>
